<?xml version="1.0" encoding="UTF-8"?>
<!DOCTYPE svg PUBLIC "-//W3C//DTD SVG 1.1//EN" "http://www.w3.org/Graphics/SVG/1.1/DTD/svg11.dtd">
<svg xmlns="http://www.w3.org/2000/svg" version="1.1" width="512px" height="512px" style="shape-rendering:geometricPrecision; text-rendering:geometricPrecision; image-rendering:optimizeQuality; fill-rule:evenodd; clip-rule:evenodd" xmlns:xlink="http://www.w3.org/1999/xlink">
<g><path style="opacity:0.972" fill="white" d="M 85.5,-0.5 C 94.8333,-0.5 104.167,-0.5 113.5,-0.5C 132.961,3.06311 150.295,11.2298 165.5,24C 174.083,32.5783 181.916,41.7449 189,51.5C 210.948,81.7822 233.281,111.782 256,141.5C 282.756,104.988 309.756,68.655 337,32.5C 353.548,14.8104 373.714,3.81042 397.5,-0.5C 406.833,-0.5 416.167,-0.5 425.5,-0.5C 473.16,9.15955 501.826,37.8262 511.5,85.5C 511.5,94.5 511.5,103.5 511.5,112.5C 502.013,160.154 473.346,188.654 425.5,198C 372.423,201.391 335.923,178.557 316,129.5C 304.667,144.833 293.333,160.167 282,175.5C 282.044,177.279 282.711,178.945 284,180.5C 318.052,225.551 351.719,270.885 385,316.5C 391.512,328.939 389.012,339.105 377.5,347C 367.806,350.326 359.306,348.493 352,341.5C 300.052,270.552 247.719,199.885 195,129.5C 175.077,178.557 138.577,201.391 85.5,198C 37.6539,188.654 8.98726,160.154 -0.5,112.5C -0.5,103.5 -0.5,94.5 -0.5,85.5C 9.17378,37.8262 37.8405,9.15955 85.5,-0.5 Z M 88.5,40.5 C 124.556,37.9236 147.389,53.9236 157,88.5C 160.368,114.932 150.868,135.432 128.5,150C 95.6041,164.903 68.7707,157.736 48,128.5C 35.0396,101.868 38.5396,77.7013 58.5,56C 67.3275,48.4205 77.3275,43.2538 88.5,40.5 Z M 401.5,40.5 C 428.073,37.7069 448.573,47.3735 463,69.5C 477.903,102.396 470.736,129.229 441.5,150C 414.868,162.96 390.701,159.46 369,139.5C 349.342,114.979 348.009,89.6461 365,63.5C 374.732,51.8886 386.898,44.2219 401.5,40.5 Z"/></g>
<g><path style="opacity:0.971" fill="white" d="M 403.5,511.5 C 399.5,511.5 395.5,511.5 391.5,511.5C 387.654,509.845 384.154,507.512 381,504.5C 339,448.5 297,392.5 255,336.5C 214.667,391.5 174.333,446.5 134,501.5C 130.513,505.835 126.346,509.168 121.5,511.5C 117.5,511.5 113.5,511.5 109.5,511.5C 74.0089,492.197 58.1756,462.197 62,421.5C 63.9455,405.977 69.9455,392.311 80,380.5C 117.333,329.833 154.667,279.167 192,228.5C 202.716,218.252 213.716,217.919 225,227.5C 283.667,305.5 342.333,383.5 401,461.5C 409.313,450.917 412.313,438.917 410,425.5C 408.562,419.957 406.562,414.624 404,409.5C 401.36,397.614 405.526,389.114 416.5,384C 431.98,381.157 441.813,387.323 446,402.5C 458.685,440.929 450.185,473.762 420.5,501C 415.071,505.04 409.405,508.54 403.5,511.5 Z M 208.5,275.5 C 215.636,284.146 222.636,292.98 229.5,302C 190.333,355.167 151.167,408.333 112,461.5C 101.024,446.388 99.3574,430.388 107,413.5C 141.051,367.622 174.884,321.622 208.5,275.5 Z"/></g>
</svg>
